# xmcd
#
# Track frame offsets:
#  150
#  19953
#  42019
#  65032
#  83645
#  105517
#  126291
#  146762
#  163601
#  177152
#  199356
#  218109
#  237331
#  256741
#  273900
#  292712
#
# Disc length: 4102 seconds
#
# Revision: 0
# Processed by: cddbd v1.4PL0 Copyright (c) Steve Scherf et al.
# Submitted via: AltoMP3_Maker 3.0
#
DISCID=e3100410
DTITLE=郑秀文等 - e时代少女
DYEAR=1900
DGENRE=
TTITLE0=完整
TTITLE1=爱上了
TTITLE2=两的冬天
TTITLE3=秘密
TTITLE4=情深深
TTITLE5=怎样
TTITLE6=爱过不伤心
TTITLE7=月亮偷着哭
TTITLE8=等
TTITLE9=投怀送抱
TTITLE10=给我新鲜
TTITLE11=飘摇
TTITLE12=我要找到你
TTITLE13=星语心愿
TTITLE14=那么骄傲
TTITLE15=换男人
EXTD=
EXTT0=
EXTT1=
EXTT2=
EXTT3=
EXTT4=
EXTT5=
EXTT6=
EXTT7=
EXTT8=
EXTT9=
EXTT10=
EXTT11=
EXTT12=
EXTT13=
EXTT14=
EXTT15=
PLAYORDER=
